<svg xmlns="http://www.w3.org/2000/svg" version="1.1" xmlns:xlink="http://www.w3.org/1999/xlink" xmlns:svgjs="http://svgjs.com/svgjs" width="360" height="740" preserveAspectRatio="none" viewBox="0 0 360 740"><g mask="url(&quot;#SvgjsMask1083&quot;)" fill="none"><rect width="360" height="740" x="0" y="0" fill="rgba(72, 218, 57, 0.21)"></rect><path d="M0,223.348C50.905,226.236,102.832,253.112,149.57,232.736C198.049,211.601,230.305,163.264,250.206,114.265C269.641,66.413,275.944,11.598,259.233,-37.272C243.637,-82.88,193.452,-103.871,162.871,-141.129C131.125,-179.807,119.727,-235.103,76.364,-260.072C28.902,-287.401,-33.434,-305.986,-83.011,-282.711C-132.71,-259.379,-142.181,-193.971,-167.834,-145.429C-187.562,-108.099,-200.238,-70.225,-216.002,-31.056C-237.498,22.354,-294.439,71.682,-277.34,126.657C-260.684,180.208,-192.003,197.899,-139.047,216.361C-94.32,231.954,-47.291,220.665,0,223.348" fill="rgba(55, 209, 39, 0.21)"></path><path d="M360 940.265C402.021 945.078 448.468 955.892 484.11199999999997 933.1220000000001 519.768 910.344 527.51 862.933 542.806 823.485 557.218 786.318 580.905 748.246 570.746 709.699 560.7529999999999 671.78 520.794 651.957 490.909 626.567 465.497 604.977 440.009 585.198 409.197 572.45 375.325 558.436 340.419 545.196 303.984 549.2280000000001 263.568 553.7 221.485 566.188 194.105 596.251 166.512 626.548 152.875 670.003 156.842 710.79 160.521 748.614 197.813 772.307 214.548 806.426 230.625 839.204 226.04 881.923 252.905 906.643 281.008 932.502 322.058 935.92 360 940.265" fill="rgba(93, 222, 80, 0.21)"></path></g><defs><mask id="SvgjsMask1083"><rect width="360" height="740" fill="#ffffff"></rect></mask></defs></svg>